<svg xmlns="http://www.w3.org/2000/svg" viewBox="97.6 101.2 821.6 821.6"><g transform="translate(0 0) scale(1 1) translate(0 0)"><path d="M492.361 135.207C492.391 135.204 492.421 135.201 492.452 135.197C562.03 131.678 625.545 149.215 678.345 196.153C727.12 239.515 754.365 295.896 761.945 360.388C764.2 379.564 763.71 394.19 764.83 412.81C775.98 413.296 789.765 412.983 801.07 412.994L801.015 435.005L763.98 434.955L763.9 638.925C750.275 639.24 735.8 639.015 722.11 639.02C722.42 644.515 722.69 650.01 722.925 655.51C735.575 655.14 750.755 656.13 763.055 655.14C762.21 694.47 763.635 734.4 763.06 773.79C762.85 787.915 762.595 804 763.35 817.97C771.69 817.995 780.035 817.975 788.38 817.905C795.665 817.865 805.54 816.75 811.07 822.365C819.815 831.245 815.24 848.39 816.425 859.88C816.97 865.18 816.245 873.04 815.82 878.42C815.19 885.805 807.76 891.445 800.78 891.83C791.165 892.38 781.3 892.17 771.625 892.2L711.735 892.235L504.68 892.28L306.407 892.21L250.441 892.175C241.362 892.155 231.849 892.29 222.783 891.845C219.932 891.575 215.469 890 213.39 887.9C204.17 878.585 209.24 859.99 208.047 847.955C207.522 842.66 208.01 836.66 208.385 831.55C208.588 828.785 210.874 824.73 212.737 822.83C214.852 820.695 217.523 819.2 220.446 818.51C225.32 817.335 253.256 818.08 260.841 817.9C261.653 798.545 260.977 774.34 260.975 754.6L261.065 625.09C270.49 624.89 280.504 625.07 289.974 625.075C290.399 619.05 290.647 613.495 290.321 607.455C285.584 606.905 278.072 607.095 273.082 607.095L243.564 607.115C243.715 602.955 243.713 599.065 243.68 594.9C249.439 594.885 255.199 594.915 260.957 594.995C261.721 555.985 260.996 514.175 261.014 474.874C271.76 474.254 283.149 474.941 294.026 474.51C294.114 469.033 294.244 463.556 294.416 458.081L236.115 458.002L236.089 443.17C243.547 442.814 253.35 443.061 260.945 443.01C261.514 422.231 260.116 398.995 261.158 378.552C263.982 323.163 283.208 265.759 319.748 223.389C367.324 168.222 420.499 141.049 492.361 135.207ZM589.955 421.072C580.21 420.952 569.01 420.711 559.305 421.131C557.855 432.994 553.72 443.744 539.95 444.683C524.595 445.731 508.61 444.598 493.307 445.069C474.273 445.653 467.771 439.991 465.629 420.831C455.763 420.933 445.896 420.961 436.03 420.914C436.108 428.137 436.985 435.472 431.618 441.099C428.99 443.884 425.318 445.443 421.489 445.401C417.911 445.373 414.501 443.882 412.049 441.276C406.847 435.708 407.906 428.208 407.992 420.975C398.596 420.987 388.819 420.86 379.454 421.071C378.732 428.392 377.957 435.707 377.129 443.015L403.991 443.047L404.012 452.975C394.814 453.02 384.871 453.267 375.738 453.087C374.979 460.478 373.156 473.104 372.9 480.018L392.718 480.026L393.006 490.938L343.452 490.982C343.476 494.288 343.479 497.593 343.461 500.9C352.378 500.89 361.294 500.935 370.211 501.035C368.593 511.075 367.997 523.855 366.237 532.995L421.99 533.045C421.98 537.315 422.025 541.7 421.946 545.955L365.256 545.995C364.106 555.69 362.715 566.38 361.886 576.055L384.056 576.075L384.028 586.495C375.669 585.48 350.414 586.135 341.066 586.17C340.995 589.74 340.97 593.415 340.843 596.97C346.839 596.92 352.834 596.94 358.829 597.025C356.872 609.905 356.132 624.06 353.969 636.525C362.481 636.425 372.802 636.7 381.061 636.095C381.013 640.015 381.056 642.615 381.396 646.505C365.448 646.14 349.49 646.665 333.679 646.185C333.513 650.36 333.418 654.825 333.056 658.96C339.735 659.01 346.414 659.025 353.092 658.995C352.124 667.305 350.9 681.17 349.338 688.965L394.018 689.02C393.983 692.81 393.844 697.09 393.947 700.84C379.235 701.42 362.926 701.09 348.111 701.035C346.981 710.505 346.39 715.68 348.121 725.205C358.681 725.61 370.347 725.485 380.978 725.405C380.958 729.245 380.89 733.175 380.924 737.005C370.98 736.985 360.707 736.83 350.791 737.105C360.913 756.385 370.997 763.27 392.975 765.46C406.536 767.22 424.972 762.98 439.13 762.98C460.283 762.235 480.943 765.695 502.015 766.07C524.48 766.475 546.355 764.095 569.19 762.99C598.935 761.545 634.9 774.42 660.5 755.5C666.835 750.82 671.57 744.01 674.545 736.98C650.63 737.02 624.7 736.48 601.035 737.06L601.08 725.145C626.485 724.685 652.81 725.01 678.285 725.02C679.625 714.125 679.695 709.415 678.96 698.27C666.945 697.99 651.705 697.78 639.775 698.335C639.55 694.115 639.735 691.26 640.01 687.005C652.425 687.005 665.925 687.27 678.25 686.945C677.275 681.165 675.63 667.985 675.325 662.035C669.695 662.02 652.725 661.645 648.03 662.41C648.06 658.685 648.03 654.755 648.14 651.05C655.98 651.095 666.835 651.815 674.395 650.885C671.595 638.565 670.815 622.03 668.44 608.975L585.45 609.055C585.49 604.775 585.445 600.245 585.58 595.99L667.105 596.745C667.05 593.92 667.22 591.585 666.285 588.935C664.395 587.285 643.44 588.125 639.03 588.005V577.935C647.7 577.885 656.365 577.89 665.035 577.95C663.815 571.725 662.77 562.555 662.155 556.15C674.455 555.735 686.735 556.155 699.01 555.945C698.4 550.895 698.48 546.095 698.48 541.025C686.24 541.055 672.89 541.36 660.745 541.075C660.25 536.565 657.25 505.86 655.53 504.315C650.74 503.57 630.42 504.02 624.045 504.04L624.03 491.782C633.56 491.892 645.925 492.336 655.245 491.841C653.59 484.327 650.37 458.189 649.915 450.082C640.19 450.072 630.28 450.165 620.57 450.026L620.53 440.48C630.08 440.387 639.63 440.373 649.18 440.438C648.44 434.903 647.12 425.91 646.955 420.468L617.57 420.69C618.095 427.705 618.625 435.15 613.425 440.78C604.68 450.25 591.02 444.76 589.97 432.214C589.67 428.648 589.895 424.659 589.955 421.072ZM390.572 328.891L426.25 328.926L451.591 328.969C445.878 311.458 435.79 301.864 416.529 303.087C401.276 306.562 395.217 314.463 390.572 328.891ZM380.784 409.365C386.398 408.73 401.333 408.948 407.511 409.063C409.125 406.832 409.996 388.059 410.083 383.982L383.732 383.898C382.693 392.381 381.71 400.87 380.784 409.365ZM641.945 378.099L614.305 378.106C615.12 387.384 615.815 400.127 617.1 408.983C626.13 408.994 636.78 409.285 645.68 408.941L641.945 378.099ZM592.17 378.238C583.335 377.932 574.11 378.058 565.24 378.059C563.72 388.402 562.56 398.645 560.98 409.029L588.625 409.01L589.635 408.669C590.285 405.444 590.09 402.306 590.36 399.044C590.93 392.232 591.16 384.965 592.17 378.238ZM459.192 378.071C451.021 378.088 441.65 377.899 433.579 378.291C434.467 387.774 434.726 400.018 435.923 409.049C444.516 409.015 455.753 408.681 464.166 409.173C461.953 399.169 461.295 387.743 459.192 378.071ZM331.009 450.448C324.449 449.815 314.257 450.018 307.481 450.148C306.781 452.888 307.005 455.189 307.062 458.02C315.062 458.04 323.301 458.16 331.28 458.011L331.009 450.448ZM598.675 303.07C583.23 306.733 578.055 314.845 572.575 328.949L609.375 328.943L635.035 328.97C629.205 310.08 618.38 302.173 598.675 303.07ZM453.573 340.098L389.076 340.001C387.712 346.655 386.325 361.088 385.723 367.961L410.846 368.022C411.479 363.078 411.552 351.328 416.05 348.587C430.684 339.672 432.556 358.03 433.005 367.98C441.082 367.995 449.663 368.155 457.699 367.964C456.384 358.666 455.009 349.378 453.573 340.098ZM764.04 421.064L735.08 421.052C735.07 425.288 734.98 429.776 735.1 433.99L763.95 434.05L764.04 421.064ZM566.8 367.96C575.03 367.982 583.51 368.107 591.72 367.948C592.185 360.366 592.04 345.486 603.195 346.416C605.82 346.617 608.26 347.853 609.975 349.851C613.675 354.194 612.075 365.658 614.245 367.897L614.875 367.961C623.56 367.982 632.585 368.127 641.24 367.928C639.39 359.83 638.425 348.62 636.97 340.018L570.745 340.056C569.49 349.365 568.175 358.667 566.8 367.96Z" fill="var(--ic-fg, currentColor)"></path></g><g transform="translate(0 0) scale(1 1) translate(0 0)"><path d="M639.415 542.955L655.74 542.95C655.495 547.405 655.495 552.46 655.395 556.965L639.115 557L639.415 542.955Z" fill="var(--ic-fg, currentColor)"></path><path d="M197.065 498.047C209.062 497.951 221.06 497.943 233.057 498.022C232.863 505.4 233.025 513.47 233.027 520.9C221.043 521.175 209.007 520.735 196.953 521.11C196.917 513.425 196.954 505.735 197.065 498.047Z" fill="var(--ic-fg, currentColor)"></path><path d="M778.02 526.955L811.095 527C810.94 532.805 811.515 543.73 810.825 549L778.035 548.945C778.025 541.675 778.555 534.135 778.02 526.955Z" fill="var(--ic-fg, currentColor)"></path><path d="M785.035 640.145C793.48 639.89 802.55 640.01 811.04 639.995L811.1 659.97C802.48 660.17 793.61 660.1 784.985 660.085L785.035 640.145Z" fill="var(--ic-fg, currentColor)"></path><path d="M225.044 619.265C229.362 619.325 233.681 619.36 238 619.37C238.062 624.025 238.27 629.41 237.898 633.995C236.476 634.9 235.631 634.555 233.625 634.595C229.242 634.51 224.492 634.78 220.084 634.945C220.01 630.645 219.702 624.13 220.194 620.03C221.366 619.175 223.474 619.325 225.044 619.265Z" fill="var(--ic-fg, currentColor)"></path></g></svg>